<?xml version="1.0" encoding="UTF-8" standalone="no"?>
<!-- Created with Inkscape (http://www.inkscape.org/) -->

<svg
   width="270.93332mm"
   height="270.93332mm"
   viewBox="0 0 270.93332 270.93332"
   version="1.1"
   id="svg1"
   xml:space="preserve"
   xmlns="http://www.w3.org/2000/svg"
   xmlns:svg="http://www.w3.org/2000/svg"><defs
     id="defs1" /><g
     id="layer1"
     transform="translate(28.07049,-20.55949)"><path
       style="fill:#000000"
       d="M -28.07049,156.02615 V 20.55949 H 107.39617 242.86284 V 156.02615 291.49281 H 107.39617 -28.07049 Z m 140.44361,104.34302 c 1.06383,-0.22275 2.73071,-0.73392 3.70417,-1.13593 0.97345,-0.40201 9.86617,-5.23524 19.76158,-10.7405 20.60166,-11.46163 33.58226,-18.64386 46.90377,-25.9521 5.1331,-2.81604 10.02174,-5.58785 10.86363,-6.15957 2.56636,-1.74278 5.34084,-4.92635 6.75035,-7.74566 2.35503,-4.71053 2.15726,0.10034 2.15726,-52.47697 0,-43.85371 -0.0275,-46.67414 -0.47286,-48.41144 -1.01677,-3.96675 -3.40837,-7.770088 -6.54515,-10.408698 -2.13294,-1.7942 -3.02481,-2.323522 -16.00074,-9.496362 -11.65862,-6.44466 -28.79505,-15.99169 -52.38751,-29.18606 -11.4112,-6.38185 -13.15594,-7.06146 -18.8028,-7.32399 -2.43737,-0.11332 -3.71918,-0.0417 -5.4198,0.30291 -4.296364,0.87055 -3.928494,0.68277 -31.2076,15.93021 -4.43838,2.4808 -10.80823,6.03326 -14.15521,7.89435 -3.34698,1.86109 -7.93088,4.41582 -10.18645,5.67716 -2.25558,1.26134 -9.0245,5.02462 -15.042056,8.36284 -11.774934,6.532122 -13.612716,7.792432 -16.038454,10.99888 -1.441115,1.90493 -2.80922,4.62932 -3.503572,6.97687 -0.440446,1.48911 -0.474229,4.43253 -0.545106,47.49271 -0.05141,31.23128 0.01363,46.48526 0.203453,47.71982 1.065547,6.92998 5.192796,12.03521 13.229899,16.3648 1.236927,0.66634 4.987395,2.72617 8.334374,4.57742 3.346979,1.85124 11.919482,6.58093 19.050002,10.51043 7.13052,3.92949 16.83411,9.31499 21.56354,11.96778 13.88572,7.78864 21.982226,12.20531 23.680196,12.9176 4.669344,1.95877 9.135084,2.38412 14.105084,1.3435 z m -8.72519,-15.80767 c -0.82461,-0.33917 -3.62258,-1.80964 -6.217714,-3.26772 -2.59513,-1.45807 -10.612016,-5.9555 -17.815296,-9.99429 -7.20328,-4.03879 -14.10891,-7.91145 -15.34583,-8.60591 -7.03043,-3.94718 -7.27715,-4.10598 -7.22224,-4.64844 0.0296,-0.29233 2.00578,-4.99002 4.39153,-10.43932 2.38575,-5.44929 5.9186,-13.5392 7.85078,-17.97759 5.79519,-13.3121 12.48231,-28.55914 15.60767,-35.58646 3.96809,-8.92218 6.343,-14.32514 18.37535,-41.80416 0.76463,-1.74625 2.09463,-4.86829 2.95555,-6.93787 1.39089,-3.34357 1.96219,-4.36466 1.96219,-3.50705 0,0.14888 1.14273,2.85756 2.53941,6.01927 1.39668,3.16171 4.84134,11.10638 7.65481,17.65482 2.81346,6.54843 5.44068,12.65039 5.83827,13.55989 l 0.72289,1.65365 h 10.40773 c 5.72424,0 10.40773,-0.0502 10.40773,-0.11157 0,-0.10458 -1.65855,-3.56908 -6.21643,-12.98531 -2.95747,-6.1099 -13.09187,-26.82272 -17.68069,-36.13602 -2.2641,-4.59512 -4.27813,-8.48888 -4.47563,-8.65278 -0.43169,-0.35827 -18.927994,-0.5024 -19.241364,-0.14994 -0.24695,0.27776 -8.606136,16.795872 -24.750226,48.90749 -6.80392,13.53344 -14.54421,28.8925 -17.20064,34.13125 -2.65643,5.23875 -8.42282,16.70602 -12.814204,25.48282 -4.391385,8.77679 -8.070459,15.92054 -8.175721,15.875 -0.105261,-0.0455 -1.574474,-0.82551 -3.264918,-1.73323 -3.120973,-1.67589 -4.012882,-2.45268 -5.056889,-4.40419 l -0.582666,-1.08915 v -44.71458 -44.71458 l 0.610772,-1.23995 c 0.335925,-0.68198 1.0503,-1.63659 1.5875,-2.12136 0.5372,-0.48478 3.834228,-2.47451 7.326728,-4.42162 3.492499,-1.94712 7.659687,-4.277418 9.260418,-5.178448 1.60073,-0.90103 4.81541,-2.691272 7.14375,-3.978322 2.32833,-1.28704 8.01432,-4.46286 12.63552,-7.05738 11.13873,-6.25371 19.45577,-10.90618 21.8926,-12.24652 1.09141,-0.6003 4.717846,-2.62089 8.058766,-4.49019 9.172824,-5.13236 8.940114,-5.03913 12.578734,-5.03913 3.03786,0 3.04629,0.002 5.29166,1.10763 1.23693,0.60919 4.8088,2.55307 7.9375,4.31973 3.1287,1.76665 9.91526,5.57135 15.08125,8.45487 21.3914,11.94012 27.77648,15.49943 30.16251,16.813832 12.21609,6.729528 19.30308,10.764038 20.13522,11.462658 0.54513,0.45766 1.29787,1.48048 1.67275,2.27292 l 0.68161,1.4408 v 44.55641 44.55642 l -0.80176,1.60447 c -0.44097,0.88245 -1.18511,1.89165 -1.65365,2.24266 -0.85465,0.64027 -6.5778,3.73299 -6.64294,3.58977 -0.0191,-0.042 -5.39141,-10.7622 -11.93846,-23.82269 l -11.90372,-23.74636 -5.29171,-0.0237 c -2.91044,-0.013 -7.94082,-0.0428 -11.1786,-0.0661 -3.23778,-0.0233 -5.88692,0.0317 -5.88698,0.12236 -5e-5,0.0906 0.2268,0.68595 0.50413,1.32291 0.27733,0.63696 1.65887,3.89655 3.07009,7.24353 2.79087,6.61906 10.7433,25.28919 17.30912,40.6371 l 4.14145,9.68084 -1.86296,1.0679 c -1.02463,0.58734 -4.83953,2.73027 -8.47755,4.76206 -3.63802,2.0318 -13.16303,7.37331 -21.16667,11.87001 -8.00365,4.49671 -15.1474,8.38171 -15.875,8.63334 -1.99312,0.68929 -5.17346,0.61967 -7.05553,-0.15444 z m -6.046624,-52.2217 c 1.47031,-0.73871 2.19133,-2.0374 2.05743,-3.70579 -0.0801,-0.99808 -0.29233,-1.58703 -0.75117,-2.08462 -1.26125,-1.36775 -1.65984,-1.41908 -11.020046,-1.41908 -9.99284,0 -10.04203,0.01 -11.14138,2.19353 -0.72324,1.43672 -0.61939,2.89323 0.28859,4.04754 1.06551,1.35458 1.49388,1.41035 10.91456,1.42108 7.797556,0.009 8.829716,-0.0395 9.652016,-0.45266 z m 37.167624,-0.0601 c 1.33485,-0.64619 1.99598,-1.7146 1.99598,-3.22557 0,-1.48602 -0.72969,-2.82964 -1.86839,-3.44033 -0.83906,-0.44999 -1.82681,-0.4834 -14.26706,-0.48248 -12.87009,9.6e-4 -13.39755,0.0205 -14.2279,0.52675 -2.54699,1.55292 -2.54462,5.45358 0.004,6.71003 0.7513,0.37038 2.50457,0.42385 14.07002,0.42913 12.63047,0.006 13.25936,-0.017 14.29328,-0.51753 z M 124.0136,178.74114 c 2.74456,-1.32862 2.73031,-5.3559 -0.0236,-6.66271 -0.84294,-0.4 -2.73181,-0.44184 -19.94526,-0.44184 -18.04213,0 -19.06127,0.0252 -19.93605,0.49294 -2.55373,1.36547 -2.58765,5.29921 -0.0572,6.63525 0.95514,0.50431 1.60459,0.52172 19.8877,0.53303 18.80586,0.0116 18.90619,0.009 20.07441,-0.55667 z m -7.63109,-12.99153 c 2.65161,-1.35968 2.81154,-4.79993 0.30109,-6.47702 l -0.89902,-0.60059 h -12.12635 c -13.50182,0 -13.73683,0.0272 -14.77781,1.71157 -0.81378,1.31673 -0.73216,3.3043 0.18024,4.38862 1.31324,1.5607 1.22532,1.55106 14.24455,1.56237 11.84722,0.0103 11.92306,0.007 13.0773,-0.58495 z m 31.70505,-12.99312 c 1.16839,-0.61687 1.90432,-1.88823 1.90554,-3.2919 0.001,-1.49102 -0.55049,-2.5051 -1.77853,-3.26861 l -0.9986,-0.62085 -24.45433,-0.0703 c -27.029904,-0.0777 -25.962514,-0.1394 -27.413924,1.58551 -1.21933,1.44908 -0.7681,4.28983 0.85628,5.39078 1.03868,0.70398 3.60718,0.7698 29.316124,0.75121 20.08307,-0.0145 21.76064,-0.0499 22.56744,-0.47587 z"
       id="path1" /></g></svg>
